<?xml version="1.0" standalone="no"?>
<!DOCTYPE svg PUBLIC "-//W3C//DTD SVG 20010904//EN"
 "http://www.w3.org/TR/2001/REC-SVG-20010904/DTD/svg10.dtd">
<svg version="1.0" xmlns="http://www.w3.org/2000/svg"
 width="351.000000pt" height="351.000000pt" viewBox="0 0 351.000000 351.000000"
 preserveAspectRatio="xMidYMid meet">
<metadata>
Created by potrace 1.14, written by Peter Selinger 2001-2017
</metadata>
<g transform="translate(0.000000,351.000000) scale(0.100000,-0.100000)"
fill="#000000" stroke="none">
<path d="M1585 3503 c-30 -3 -124 -18 -180 -29 -195 -35 -448 -141 -629 -264
-188 -126 -379 -318 -482 -485 -10 -16 -21 -32 -25 -35 -25 -20 -172 -334
-185 -394 -2 -11 -10 -40 -18 -65 -17 -55 -33 -133 -51 -250 -12 -80 -13 -383
-1 -453 2 -16 7 -47 11 -70 34 -215 141 -483 267 -672 34 -50 64 -93 67 -96 3
-3 24 -27 46 -55 71 -90 226 -233 335 -310 100 -70 340 -203 340 -189 0 4 6 2
13 -4 31 -24 235 -84 372 -108 182 -33 476 -24 685 20 34 7 175 51 225 69 142
53 374 182 451 252 7 5 31 25 54 44 53 43 173 162 223 221 70 82 186 264 236
370 60 130 103 255 130 385 32 155 32 160 36 335 6 299 -44 533 -165 786 -177
367 -458 651 -814 823 -164 80 -327 133 -476 156 -25 4 -54 9 -65 12 -25 6
-359 11 -400 6z"/>
</g>
</svg>
